# xmcd CD database file
#
# Track frame offsets:
#	150
#	12875
#	29215
#	40712
#	54672
#	68100
#	79235
#	96637
#	107890
#	125467
#	141350
#
# Disc length: 2072 seconds
#
# Revision: 4
# Processed by: cddbd v1.5.2PL0 Copyright (c) Steve Scherf et al.
# Submitted via: CDex 1.70beta2
#
DISCID=a008160b
DTITLE=George Jones - The Bradley Barn Sessions
DYEAR=1994
DGENRE=Country
TTITLE0=George Jones and Marty Stuart - One Woman Man
TTITLE1=George Jones and Alan Jackson - A Good Year For The Roses
TTITLE2=George Jones and Ricky Skaggs - Why Baby Why
TTITLE3=George Jones and Tammy Wynette - Golden Ring
TTITLE4=George Jones and Keith Richards - Say Its Not You
TTITLE5=George Jones and Vince Gill - The Love Bug
TTITLE6=George Jones, Emmylou Harris, Dolly Parton and Trisha Yearwood - Where Grass Won't Grow
TTITLE7=George Jones and Travis Tritt - The Race Is On
TTITLE8=George Jones and Trisha Yearwood - Bartender Blues
TTITLE9=George Jones and Mark Knopfler - White Lightnin'
TTITLE10=George Jones and Mark Chesnutt - Good Ones And Bad Ones
EXTD=YEAR: 1994
EXTT0=
EXTT1=
EXTT2=
EXTT3=
EXTT4=
EXTT5=
EXTT6=
EXTT7=
EXTT8=
EXTT9=
EXTT10=
PLAYORDER=
